<svg xmlns="http://www.w3.org/2000/svg" width="512" height="512" viewBox="0 0 512 512">
  <rect width="512" height="512" fill="#FFFFFF"/>
  <path fill="#E6BB8B" d="
    M 395.56 41.00
    L 392.63 41.84
    L 384.66 45.61
    L 376.70 50.64
    L 359.10 64.47
    L 331.44 90.87
    L 302.52 122.73
    L 279.89 150.81
    L 262.29 175.95
    L 257.26 184.33
    L 252.23 194.81
    L 235.88 194.81
    L 219.96 198.58
    L 210.74 185.17
    L 201.52 174.69
    L 178.88 151.64
    L 157.51 128.59
    L 136.14 107.22
    L 123.98 97.16
    L 116.44 92.97
    L 111.41 92.97
    L 109.31 94.65
    L 108.06 97.16
    L 107.22 100.93
    L 107.22 109.73
    L 108.89 122.73
    L 114.76 147.87
    L 121.05 168.83
    L 126.50 184.75
    L 136.14 208.22
    L 143.26 222.05
    L 156.25 241.75
    L 150.81 250.55
    L 147.45 257.68
    L 143.26 270.67
    L 142.42 276.12
    L 142.42 285.76
    L 144.10 293.72
    L 144.52 299.59
    L 142.42 307.97
    L 139.49 312.58
    L 133.62 318.87
    L 112.67 336.89
    L 107.22 341.08
    L 99.26 344.85
    L 96.74 348.20
    L 96.32 351.97
    L 98.00 356.17
    L 100.09 359.10
    L 106.38 364.97
    L 125.24 377.12
    L 137.39 381.31
    L 154.16 381.31
    L 162.54 379.64
    L 183.08 373.77
    L 188.52 372.93
    L 195.65 373.35
    L 198.58 374.61
    L 200.68 376.70
    L 202.35 380.89
    L 202.35 389.69
    L 201.10 396.82
    L 196.49 411.07
    L 189.36 428.67
    L 186.01 439.57
    L 186.43 440.41
    L 197.74 431.60
    L 198.58 432.02
    L 196.49 447.11
    L 196.49 460.10
    L 197.74 470.58
    L 206.13 462.20
    L 213.67 456.33
    L 223.73 450.04
    L 232.95 445.43
    L 253.49 437.89
    L 288.69 428.25
    L 298.75 424.90
    L 310.06 420.29
    L 320.12 414.84
    L 333.53 404.78
    L 341.50 395.98
    L 347.78 384.25
    L 350.30 373.77
    L 359.10 382.15
    L 359.10 377.12
    L 357.00 362.45
    L 351.97 341.08
    L 343.17 314.26
    L 333.95 293.72
    L 342.75 287.01
    L 350.72 279.05
    L 358.68 267.73
    L 361.19 261.45
    L 351.56 263.12
    L 350.30 262.71
    L 358.68 256.42
    L 365.81 248.88
    L 379.22 228.76
    L 388.86 210.32
    L 397.24 189.78
    L 403.11 171.34
    L 408.13 150.81
    L 412.74 123.98
    L 414.84 102.19
    L 415.26 82.07
    L 414.00 65.31
    L 411.49 53.15
    L 407.72 45.19
    L 404.78 42.26
    L 402.27 41.00
    Z
  "/>
</svg>
